<?xml version="1.0" encoding="UTF-8" standalone="no"?>
<svg
   xmlns:dc="http://purl.org/dc/elements/1.1/"
   xmlns:cc="http://creativecommons.org/ns#"
   xmlns:rdf="http://www.w3.org/1999/02/22-rdf-syntax-ns#"
   xmlns:svg="http://www.w3.org/2000/svg"
   xmlns="http://www.w3.org/2000/svg"
   viewBox="0 0 1333.3333 376.66666"
   height="376.66666"
   width="1333.3333"
   xml:space="preserve"
   id="svg2"
   version="1.1"><metadata
     id="metadata8"><rdf:RDF><cc:Work
         rdf:about=""><dc:format>image/svg+xml</dc:format><dc:type
           rdf:resource="http://purl.org/dc/dcmitype/StillImage" /></cc:Work></rdf:RDF></metadata><defs
     id="defs6"><linearGradient
       id="linearGradient28"
       spreadMethod="pad"
       gradientTransform="matrix(164.77647,0,0,-164.77647,54.256893,120.23776)"
       gradientUnits="userSpaceOnUse"
       y2="0"
       x2="1"
       y1="0"
       x1="0"><stop
         id="stop24"
         offset="0"
         style="stop-opacity:1;stop-color:#045ba7" /><stop
         id="stop26"
         offset="1"
         style="stop-opacity:1;stop-color:#2d368e" /></linearGradient><linearGradient
       id="linearGradient48"
       spreadMethod="pad"
       gradientTransform="matrix(164.77647,0,0,-164.77647,54.256893,175.16316)"
       gradientUnits="userSpaceOnUse"
       y2="0"
       x2="1"
       y1="0"
       x1="0"><stop
         id="stop44"
         offset="0"
         style="stop-opacity:1;stop-color:#11af4b" /><stop
         id="stop46"
         offset="1"
         style="stop-opacity:1;stop-color:#a3cc39" /></linearGradient><clipPath
       id="clipPath58"
       clipPathUnits="userSpaceOnUse"><path
         id="path56"
         d="M 0,282.5 H 1000 V 0 H 0 Z" /></clipPath></defs><g
     transform="matrix(1.3333333,0,0,-1.3333333,0,376.66667)"
     id="g10"><g
       id="g12"><g
         id="g14"><g
           id="g20"><g
             id="g22"><path
               id="path30"
               style="fill:url(#linearGradient28);stroke:none"
               d="m 164.108,120.237 h -54.925 c -30.335,0 -54.926,-24.59 -54.926,-54.924 v 0 -0.001 h 164.776 v 54.925 c 0,30.336 -24.591,54.926 -54.925,54.926 v 0 z" /></g></g></g></g><g
       id="g32"><g
         id="g34"><g
           id="g40"><g
             id="g42"><path
               id="path50"
               style="fill:url(#linearGradient48);stroke:none"
               d="m 54.257,230.089 v -54.926 c 0,-30.334 24.591,-54.926 54.926,-54.926 v 0 54.926 h 54.925 c 30.334,0 54.925,24.591 54.925,54.926 v 0 z" /></g></g></g></g><g
       id="g52"><g
         clip-path="url(#clipPath58)"
         id="g54"><g
           transform="translate(257.2026,69.4808)"
           id="g60"><path
             id="path62"
             style="fill:#2d368e;fill-opacity:1;fill-rule:nonzero;stroke:none"
             d="m 0,0 c -1.79,1.523 -3.03,3.729 -3.72,6.617 -0.692,2.887 -1.037,6.564 -1.037,11.029 0,4.57 0.399,8.282 1.196,11.134 0.797,2.852 2.214,5.031 4.251,6.538 2.037,1.505 4.917,2.259 8.637,2.259 4.323,0 8.664,-0.532 13.022,-1.594 v -5.051 c -1.311,0.177 -3.074,0.347 -5.289,0.506 -2.214,0.159 -4.42,0.24 -6.616,0.24 -2.375,0 -4.173,-0.445 -5.395,-1.33 C 3.826,29.462 2.985,28.027 2.524,26.043 2.063,24.059 1.833,21.241 1.833,17.592 c 0,-3.72 0.23,-6.564 0.691,-8.531 C 2.985,7.096 3.755,5.722 4.836,4.944 5.917,4.163 7.485,3.775 9.54,3.775 c 1.452,0 2.905,0.14 4.358,0.423 1.453,0.284 2.746,0.62 3.88,1.011 v 9.036 H 9.859 v 5.101 c 1.063,0.142 2.427,0.266 4.093,0.373 1.665,0.106 3.295,0.159 4.889,0.159 2.126,0 3.88,-0.053 5.262,-0.159 V -2.019 H 19.16 l -0.903,2.71 C 16.875,-0.089 15.227,-0.78 13.314,-1.382 11.4,-1.984 9.434,-2.285 7.414,-2.285 4.26,-2.285 1.789,-1.524 0,0" /></g><path
           id="path64"
           style="fill:#2d368e;fill-opacity:1;fill-rule:nonzero;stroke:none"
           d="m 288.268,95.949 h 6.59 V 67.461 h -6.59 z m 0.133,4.784 c -0.195,0.177 -0.292,0.407 -0.292,0.69 v 4.837 c 0,0.32 0.087,0.576 0.265,0.771 0.177,0.195 0.425,0.293 0.744,0.293 h 4.997 c 0.318,0 0.557,-0.098 0.717,-0.293 0.159,-0.195 0.239,-0.451 0.239,-0.771 v -4.837 c 0,-0.637 -0.319,-0.956 -0.956,-0.956 h -4.997 c -0.284,0 -0.523,0.088 -0.717,0.266" /><g
           transform="translate(315.2674,108.386)"
           id="g66"><path
             id="path68"
             style="fill:#2d368e;fill-opacity:1;fill-rule:nonzero;stroke:none"
             d="M 0,0 H 5.421 L -0.904,-7.387 H -4.73 Z m -0.612,-35.85 c 1.648,0.515 2.632,0.86 2.951,1.038 v 7.441 l -6.166,-0.319 c -3.083,-0.248 -4.624,-1.613 -4.624,-4.093 v -1.169 c 0,-1.276 0.363,-2.198 1.09,-2.765 0.725,-0.567 1.655,-0.868 2.79,-0.903 0.992,0 2.312,0.257 3.959,0.77 m -12.383,-3.454 c -1.328,1.293 -1.993,3.038 -1.993,5.236 v 2.392 c 0,2.266 0.77,4.074 2.312,5.421 1.541,1.346 3.835,2.02 6.883,2.02 h 8.132 v 2.497 c 0,1.064 -0.178,1.914 -0.532,2.551 -0.354,0.637 -1.01,1.124 -1.966,1.462 -0.957,0.336 -2.339,0.505 -4.146,0.505 h -8.611 v 3.827 c 3.225,0.884 6.945,1.329 11.162,1.329 3.614,0 6.298,-0.711 8.052,-2.127 1.754,-1.417 2.631,-3.792 2.631,-7.122 V -40.925 H 3.774 l -1.117,3.084 c -0.354,-0.32 -1.081,-0.754 -2.178,-1.304 -1.099,-0.549 -2.385,-1.036 -3.854,-1.461 -1.471,-0.425 -2.933,-0.637 -4.385,-0.637 -2.161,0 -3.906,0.646 -5.235,1.939" /></g><g
           transform="translate(348.2456,69.6942)"
           id="g70"><path
             id="path72"
             style="fill:#2d368e;fill-opacity:1;fill-rule:nonzero;stroke:none"
             d="m 0,0 c -1.364,1.488 -2.011,4.002 -1.94,7.546 l 0.213,13.394 h -4.465 v 4.253 l 4.677,1.062 0.957,7.973 h 5.155 v -7.973 h 7.228 V 20.94 H 4.597 V 7.6 c 0,-1.666 0.31,-2.826 0.93,-3.482 C 6.147,3.462 6.954,3.082 7.946,2.975 L 11.507,2.604 V -2.233 H 6.777 C 3.623,-2.233 1.363,-1.489 0,0" /></g><g
           transform="translate(364.9079,95.9491)"
           id="g74"><path
             id="path76"
             style="fill:#2d368e;fill-opacity:1;fill-rule:nonzero;stroke:none"
             d="M 0,0 H 5.102 L 6.59,-4.571 c 1.24,1.559 2.56,2.772 3.96,3.642 1.4,0.868 2.984,1.302 4.757,1.302 0.85,0 1.648,-0.107 2.391,-0.319 v -6.697 c -1.346,0.14 -2.427,0.212 -3.242,0.212 -1.665,0 -3.1,-0.275 -4.304,-0.824 C 8.947,-7.805 7.759,-8.681 6.59,-9.886 V -28.488 H 0 Z" /></g><g
           transform="translate(387.9998,56.0341)"
           id="g78"><path
             id="path80"
             style="fill:#2d368e;fill-opacity:1;fill-rule:nonzero;stroke:none"
             d="m 0,0 c -0.195,0.178 -0.292,0.425 -0.292,0.744 v 4.784 c 0,0.319 0.088,0.576 0.266,0.77 C 0.151,6.494 0.399,6.59 0.717,6.59 H 3.8 C 4.119,6.59 4.358,6.494 4.518,6.298 4.678,6.104 4.757,5.847 4.757,5.528 V 0.744 c 0,-0.672 -0.319,-1.01 -0.957,-1.01 H 0.717 C 0.434,-0.266 0.194,-0.177 0,0 m -0.823,39.915 h 6.59 V 11.427 h -6.59 z m 0.133,4.784 c -0.196,0.177 -0.293,0.406 -0.293,0.69 v 4.837 c 0,0.32 0.088,0.576 0.266,0.771 0.176,0.195 0.425,0.293 0.744,0.293 h 4.996 c 0.319,0 0.558,-0.098 0.718,-0.293 C 5.9,50.802 5.98,50.546 5.98,50.226 v -4.837 c 0,-0.637 -0.319,-0.956 -0.957,-0.956 H 0.027 c -0.284,0 -0.523,0.088 -0.717,0.266" /></g><g
           transform="translate(418.0292,69.6942)"
           id="g82"><path
             id="path84"
             style="fill:#2d368e;fill-opacity:1;fill-rule:nonzero;stroke:none"
             d="m 0,0 c -1.364,1.488 -2.011,4.002 -1.94,7.546 l 0.213,13.394 h -4.465 v 4.253 l 4.677,1.062 0.957,7.973 h 5.155 v -7.973 h 7.228 V 20.94 H 4.597 V 7.6 c 0,-1.666 0.31,-2.826 0.93,-3.482 C 6.147,3.462 6.953,3.082 7.946,2.975 L 11.507,2.604 V -2.233 H 6.777 C 3.622,-2.233 1.363,-1.489 0,0" /></g><g
           transform="translate(434.6915,107.9608)"
           id="g86"><path
             id="path88"
             style="fill:#2d368e;fill-opacity:1;fill-rule:nonzero;stroke:none"
             d="m 0,0 h 6.59 v -14.988 c 1.24,0.957 2.729,1.772 4.465,2.444 1.736,0.674 3.437,1.012 5.102,1.012 3.011,0 5.227,-0.896 6.644,-2.685 1.417,-1.79 2.126,-4.208 2.126,-7.255 v -19.027 h -6.591 v 18.229 c 0,1.489 -0.434,2.658 -1.302,3.509 -0.869,0.85 -2.011,1.275 -3.428,1.275 -1.276,0 -2.463,-0.196 -3.561,-0.584 -1.098,-0.39 -2.251,-0.975 -3.455,-1.754 V -40.499 H 0 Z" /></g><g
           transform="translate(475.2166,56.0341)"
           id="g90"><path
             id="path92"
             style="fill:#2d368e;fill-opacity:1;fill-rule:nonzero;stroke:none"
             d="m 0,0 c -0.195,0.178 -0.292,0.425 -0.292,0.744 v 4.784 c 0,0.319 0.087,0.576 0.265,0.77 C 0.151,6.494 0.398,6.59 0.717,6.59 H 3.8 C 4.119,6.59 4.358,6.494 4.518,6.298 4.677,6.104 4.756,5.847 4.756,5.528 V 0.744 c 0,-0.672 -0.318,-1.01 -0.956,-1.01 H 0.717 C 0.433,-0.266 0.194,-0.177 0,0 m 19.373,39.808 c -0.851,-1.522 -2.02,-2.55 -3.508,-3.082 V 11.427 H 10.497 L 9.275,14.404 C 5.873,12.206 2.524,11.109 -0.771,11.109 c -2.657,0 -4.704,0.743 -6.139,2.231 -1.435,1.489 -2.152,3.633 -2.152,6.431 v 20.144 h 6.59 v -18.23 c 0,-1.772 0.399,-3.002 1.196,-3.694 0.797,-0.691 2.011,-1.036 3.641,-1.036 2.48,0 4.784,0.762 6.91,2.286 v 20.674 h 2.87 c 1.275,0 2.249,0.46 2.923,1.382 0.672,0.921 1.01,2.426 1.01,4.517 h 4.571 c 0,-2.48 -0.426,-4.482 -1.276,-6.006" /></g><g
           transform="translate(499.9305,70.3576)"
           id="g94"><path
             id="path96"
             style="fill:#2d368e;fill-opacity:1;fill-rule:nonzero;stroke:none"
             d="m 0,0 c -2.039,2.144 -3.056,5.89 -3.056,11.242 0,3.79 0.46,6.758 1.381,8.902 0.922,2.143 2.241,3.649 3.96,4.518 1.718,0.868 3.906,1.302 6.564,1.302 3.402,0 6.644,-0.373 9.726,-1.116 V 21.075 H 10.816 C 9.043,21.075 7.635,20.8 6.59,20.25 5.545,19.701 4.765,18.718 4.252,17.3 3.738,15.883 3.481,13.863 3.481,11.242 3.481,8.655 3.738,6.68 4.252,5.315 4.765,3.951 5.545,3.02 6.59,2.525 7.635,2.028 9.061,1.781 10.869,1.781 H 19 v -3.72 C 17.619,-2.294 15.997,-2.595 14.137,-2.844 12.277,-3.091 10.461,-3.215 8.69,-3.215 4.933,-3.215 2.037,-2.144 0,0" /></g><path
           id="path98"
           style="fill:#2d368e;fill-opacity:1;fill-rule:nonzero;stroke:none"
           d="m 535.566,85.532 h 16.052 v -5.315 h -16.052 z" /><g
           transform="translate(567.9335,106.6851)"
           id="g100"><path
             id="path102"
             style="fill:#2d368e;fill-opacity:1;fill-rule:nonzero;stroke:none"
             d="M 0,0 H 6.802 L 16.901,-32.156 26.999,0 h 6.803 L 21.047,-39.224 h -8.292 z" /></g><g
           transform="translate(609.2031,106.1546)"
           id="g104"><path
             id="path106"
             style="fill:#2d368e;fill-opacity:1;fill-rule:nonzero;stroke:none"
             d="M 0,0 C 1.01,1.027 2.259,1.54 3.747,1.54 4.597,1.54 5.35,1.416 6.006,1.169 6.662,0.921 7.45,0.53 8.372,0 c 0.743,-0.425 1.346,-0.736 1.806,-0.931 0.46,-0.194 0.957,-0.292 1.489,-0.292 0.779,0 1.398,0.257 1.86,0.77 0.46,0.514 0.709,1.249 0.744,2.207 h 3.348 c -0.07,-2.162 -0.576,-3.81 -1.514,-4.944 -0.94,-1.134 -2.224,-1.701 -3.854,-1.701 -0.815,0 -1.576,0.133 -2.285,0.399 -0.709,0.266 -1.507,0.646 -2.392,1.143 -0.779,0.425 -1.409,0.735 -1.887,0.931 -0.478,0.194 -0.966,0.292 -1.461,0.292 -0.744,0 -1.356,-0.249 -1.834,-0.745 C 1.914,-3.367 1.656,-4.058 1.622,-4.944 H -1.675 C -1.568,-2.677 -1.01,-1.029 0,0 m 23.838,-10.312 c -0.851,-1.523 -2.02,-2.55 -3.509,-3.082 v -25.299 h -5.367 l -1.223,2.976 c -3.402,-2.197 -6.75,-3.295 -10.045,-3.295 -2.658,0 -4.704,0.744 -6.139,2.231 -1.435,1.49 -2.152,3.633 -2.152,6.432 v 20.143 h 6.59 v -18.229 c 0,-1.773 0.399,-3.003 1.196,-3.694 0.797,-0.691 2.01,-1.036 3.641,-1.036 2.48,0 4.783,0.761 6.909,2.285 v 20.674 h 2.87 c 1.276,0 2.25,0.461 2.924,1.383 0.672,0.92 1.01,2.426 1.01,4.517 h 4.571 c 0,-2.48 -0.426,-4.482 -1.276,-6.006" /></g><g
           transform="translate(636.1754,95.9491)"
           id="g108"><path
             id="path110"
             style="fill:#2d368e;fill-opacity:1;fill-rule:nonzero;stroke:none"
             d="M 0,0 H 5.369 L 6.59,-2.977 c 1.311,0.993 2.809,1.817 4.492,2.473 1.682,0.655 3.357,0.983 5.023,0.983 3.117,0 5.369,-0.913 6.749,-2.738 1.383,-1.825 2.074,-4.244 2.074,-7.254 v -18.975 h -6.59 v 18.177 c 0,1.523 -0.426,2.711 -1.276,3.561 -0.851,0.851 -2.002,1.276 -3.455,1.276 -1.312,0 -2.516,-0.196 -3.615,-0.584 C 8.893,-6.449 7.761,-7.033 6.59,-7.812 V -28.488 H 0 Z" /></g><g
           transform="translate(684.6213,82.7157)"
           id="g112"><path
             id="path114"
             style="fill:#2d368e;fill-opacity:1;fill-rule:nonzero;stroke:none"
             d="m 0,0 c 0.725,0.814 1.089,1.93 1.089,3.348 0,1.771 -0.398,3.038 -1.196,3.801 -0.797,0.761 -1.958,1.142 -3.48,1.142 h -2.977 c -1.631,0 -2.853,-0.364 -3.668,-1.09 -0.815,-0.726 -1.221,-1.923 -1.221,-3.587 0,-1.666 0.379,-2.889 1.142,-3.668 0.762,-0.779 1.887,-1.169 3.374,-1.169 h 3.084 c 1.841,0 3.127,0.408 3.853,1.223 m -8.053,-15.361 c -1.381,0 -2.515,-0.327 -3.4,-0.983 -0.888,-0.655 -1.33,-1.602 -1.33,-2.844 v -0.849 c 0,-1.241 0.425,-2.161 1.275,-2.765 0.851,-0.602 2.055,-0.903 3.616,-0.903 H -2.1 c 1.666,0 2.958,0.319 3.88,0.957 0.921,0.637 1.382,1.577 1.382,2.816 v 0.905 c 0,2.444 -1.631,3.666 -4.889,3.666 z M 9.487,9.62 4.438,8.928 C 5.217,8.22 5.847,7.404 6.324,6.484 6.802,5.562 7.042,4.233 7.042,2.497 7.042,-0.089 6.227,-2.18 4.597,-3.774 2.966,-5.369 0.38,-6.165 -3.162,-6.165 h -4.837 c -2.551,0 -3.827,-0.78 -3.827,-2.34 0,-0.673 0.257,-1.16 0.77,-1.461 0.514,-0.301 1.143,-0.451 1.888,-0.451 h 8.451 c 3.365,0 5.89,-0.665 7.573,-1.994 1.682,-1.328 2.524,-3.428 2.524,-6.298 v -0.903 c 0,-2.8 -0.894,-4.961 -2.683,-6.485 -1.79,-1.523 -4.457,-2.286 -7.999,-2.286 h -8.345 c -2.799,0 -5.058,0.604 -6.776,1.808 -1.719,1.204 -2.578,2.905 -2.578,5.103 v 1.01 c 0,1.452 0.399,2.719 1.195,3.799 0.798,1.081 1.869,1.922 3.217,2.525 -0.922,0.495 -1.622,1.143 -2.1,1.939 -0.478,0.798 -0.718,1.675 -0.718,2.632 0,1.381 0.417,2.541 1.25,3.481 0.831,0.938 1.993,1.568 3.48,1.886 -1.701,0.816 -2.915,1.941 -3.64,3.376 -0.727,1.435 -1.09,3.038 -1.09,4.81 0,3.189 0.965,5.536 2.897,7.042 1.931,1.505 4.81,2.259 8.637,2.259 h 15.36 z" /></g><g
           transform="translate(716.0317,69.6942)"
           id="g116"><path
             id="path118"
             style="fill:#2d368e;fill-opacity:1;fill-rule:nonzero;stroke:none"
             d="m 0,0 c -1.365,1.488 -2.012,4.002 -1.941,7.546 l 0.212,13.394 h -4.464 v 4.253 l 4.678,1.062 0.957,7.973 h 5.155 v -7.973 h 7.228 V 20.94 H 4.597 V 7.6 c 0,-1.666 0.31,-2.826 0.93,-3.482 C 6.146,3.462 6.953,3.082 7.945,2.975 L 11.506,2.604 V -2.233 H 6.776 C 3.621,-2.233 1.363,-1.489 0,0" /></g><g
           transform="translate(761.0757,95.8424)"
           id="g120"><path
             id="path122"
             style="fill:#2d368e;fill-opacity:1;fill-rule:nonzero;stroke:none"
             d="m 0,0 c -0.85,-1.523 -2.019,-2.55 -3.508,-3.082 v -25.299 h -5.368 l -1.223,2.977 c -3.402,-2.198 -6.75,-3.296 -10.045,-3.296 -2.658,0 -4.704,0.744 -6.139,2.232 -1.435,1.489 -2.152,3.633 -2.152,6.431 V 0.107 h 6.59 v -18.23 c 0,-1.772 0.399,-3.003 1.196,-3.694 0.797,-0.691 2.01,-1.036 3.641,-1.036 2.48,0 4.783,0.761 6.909,2.285 V 0.107 h 2.87 c 1.276,0 2.25,0.46 2.924,1.382 0.672,0.921 1.01,2.426 1.01,4.517 H 1.276 C 1.276,3.526 0.851,1.524 0,0" /></g><g
           transform="translate(779.8079,73.0946)"
           id="g124"><path
             id="path126"
             style="fill:#2d368e;fill-opacity:1;fill-rule:nonzero;stroke:none"
             d="M 0,0 C 0.868,0.425 1.515,1.303 1.941,2.632 2.366,3.96 2.579,5.988 2.579,8.717 2.579,11.41 2.366,13.42 1.941,14.75 1.515,16.079 0.868,16.947 0,17.354 c -0.868,0.406 -2.098,0.611 -3.693,0.611 -1.56,0 -2.773,-0.205 -3.641,-0.611 -0.868,-0.407 -1.514,-1.275 -1.939,-2.604 -0.426,-1.33 -0.639,-3.34 -0.639,-6.033 0,-2.729 0.213,-4.757 0.639,-6.085 0.425,-1.329 1.071,-2.207 1.939,-2.632 0.868,-0.425 2.081,-0.637 3.641,-0.637 1.595,0 2.825,0.212 3.693,0.637 M 9.674,23.014 C 8.911,21.526 7.857,20.48 6.511,19.878 7.432,18.744 8.106,17.265 8.531,15.44 8.956,13.615 9.17,11.356 9.17,8.664 9.17,4.837 8.744,1.878 7.894,-0.212 7.043,-2.303 5.696,-3.773 3.853,-4.624 c -1.842,-0.85 -4.357,-1.275 -7.546,-1.275 -3.083,0 -5.545,0.443 -7.388,1.328 -1.843,0.886 -3.199,2.375 -4.065,4.466 -0.87,2.089 -1.304,5.013 -1.304,8.769 0,3.897 0.434,6.891 1.304,8.982 0.866,2.09 2.214,3.543 4.039,4.358 1.823,0.815 4.296,1.223 7.414,1.223 1.842,0 3.401,-0.124 4.676,-0.373 h 1.33 c 1.276,0 2.249,0.461 2.923,1.383 0.672,0.92 1.009,2.426 1.009,4.517 h 4.571 c 0,-2.338 -0.381,-4.251 -1.142,-5.74" /></g><g
           transform="translate(794.8226,95.9491)"
           id="g128"><path
             id="path130"
             style="fill:#2d368e;fill-opacity:1;fill-rule:nonzero;stroke:none"
             d="M 0,0 H 5.369 L 6.59,-2.977 c 1.311,0.993 2.809,1.817 4.492,2.473 1.682,0.655 3.357,0.983 5.023,0.983 3.117,0 5.369,-0.913 6.749,-2.738 1.383,-1.825 2.074,-4.244 2.074,-7.254 v -18.975 h -6.59 v 18.177 c 0,1.523 -0.426,2.711 -1.276,3.561 -0.851,0.851 -2.002,1.276 -3.455,1.276 -1.312,0 -2.516,-0.196 -3.615,-0.584 C 8.893,-6.449 7.761,-7.033 6.59,-7.812 V -28.488 H 0 Z" /></g><g
           transform="translate(843.2685,82.7157)"
           id="g132"><path
             id="path134"
             style="fill:#2d368e;fill-opacity:1;fill-rule:nonzero;stroke:none"
             d="m 0,0 c 0.725,0.814 1.089,1.93 1.089,3.348 0,1.771 -0.398,3.038 -1.196,3.801 -0.798,0.761 -1.958,1.142 -3.48,1.142 h -2.977 c -1.631,0 -2.853,-0.364 -3.668,-1.09 -0.815,-0.726 -1.221,-1.923 -1.221,-3.587 0,-1.666 0.379,-2.889 1.142,-3.668 0.762,-0.779 1.887,-1.169 3.374,-1.169 h 3.084 c 1.841,0 3.127,0.408 3.853,1.223 m -8.053,-15.361 c -1.381,0 -2.515,-0.327 -3.4,-0.983 -0.888,-0.655 -1.33,-1.602 -1.33,-2.844 v -0.849 c 0,-1.241 0.425,-2.161 1.275,-2.765 0.851,-0.602 2.055,-0.903 3.616,-0.903 H -2.1 c 1.666,0 2.958,0.319 3.88,0.957 0.921,0.637 1.382,1.577 1.382,2.816 v 0.905 c 0,2.444 -1.631,3.666 -4.889,3.666 z M 9.487,9.62 4.438,8.928 C 5.217,8.22 5.847,7.404 6.324,6.484 6.802,5.562 7.042,4.233 7.042,2.497 7.042,-0.089 6.227,-2.18 4.597,-3.774 2.966,-5.369 0.38,-6.165 -3.162,-6.165 h -4.837 c -2.551,0 -3.827,-0.78 -3.827,-2.34 0,-0.673 0.257,-1.16 0.77,-1.461 0.514,-0.301 1.143,-0.451 1.888,-0.451 h 8.451 c 3.365,0 5.89,-0.665 7.573,-1.994 1.682,-1.328 2.524,-3.428 2.524,-6.298 v -0.903 c 0,-2.8 -0.894,-4.961 -2.683,-6.485 -1.79,-1.523 -4.457,-2.286 -7.999,-2.286 h -8.345 c -2.799,0 -5.058,0.604 -6.776,1.808 -1.719,1.204 -2.578,2.905 -2.578,5.103 v 1.01 c 0,1.452 0.399,2.719 1.195,3.799 0.798,1.081 1.869,1.922 3.217,2.525 -0.922,0.495 -1.622,1.143 -2.1,1.939 -0.478,0.798 -0.718,1.675 -0.718,2.632 0,1.381 0.417,2.541 1.25,3.481 0.831,0.938 1.993,1.568 3.48,1.886 -1.701,0.816 -2.915,1.941 -3.64,3.376 -0.727,1.435 -1.09,3.038 -1.09,4.81 0,3.189 0.965,5.536 2.897,7.042 1.931,1.505 4.81,2.259 8.637,2.259 h 15.36 z" /></g><g
           transform="translate(873.1635,69.5612)"
           id="g136"><path
             id="path138"
             style="fill:#2d368e;fill-opacity:1;fill-rule:nonzero;stroke:none"
             d="M 0,0 C -1.382,1.47 -2.074,3.834 -2.074,7.095 V 38.454 H 4.517 V 7.999 C 4.517,6.191 4.783,4.925 5.315,4.198 5.847,3.472 6.697,3.038 7.866,2.896 L 10.258,2.578 V -2.207 H 6.378 C 3.507,-2.207 1.382,-1.472 0,0" /></g><g
           transform="translate(900.4033,72.5364)"
           id="g140"><path
             id="path142"
             style="fill:#2d368e;fill-opacity:1;fill-rule:nonzero;stroke:none"
             d="m 0,0 c 1.647,0.514 2.63,0.859 2.949,1.038 v 7.44 L -3.216,8.16 C -6.298,7.911 -7.84,6.547 -7.84,4.067 V 2.898 c 0,-1.276 0.363,-2.198 1.089,-2.765 0.726,-0.567 1.657,-0.868 2.791,-0.903 0.992,0 2.312,0.257 3.96,0.77 m -12.384,-3.454 c -1.329,1.293 -1.994,3.038 -1.994,5.235 v 2.392 c 0,2.267 0.772,4.074 2.312,5.422 1.542,1.346 3.836,2.019 6.883,2.019 h 8.132 v 2.498 c 0,1.063 -0.177,1.914 -0.531,2.551 -0.355,0.637 -1.009,1.124 -1.966,1.461 -0.958,0.336 -2.34,0.506 -4.146,0.506 h -8.61 v 3.827 c 3.224,0.884 6.944,1.328 11.161,1.328 3.614,0 6.298,-0.71 8.052,-2.126 1.753,-1.417 2.63,-3.792 2.63,-7.122 V -5.075 H 4.384 l -1.115,3.083 c -0.355,-0.32 -1.081,-0.754 -2.18,-1.303 -1.099,-0.55 -2.384,-1.036 -3.854,-1.461 -1.47,-0.426 -2.931,-0.638 -4.384,-0.638 -2.162,0 -3.907,0.646 -5.235,1.94" /></g><path
           id="path144"
           style="fill:#2d368e;fill-opacity:1;fill-rule:nonzero;stroke:none"
           d="m 916.479,95.949 h 6.59 V 67.461 h -6.59 z m 0.133,4.784 c -0.195,0.177 -0.292,0.407 -0.292,0.69 v 4.837 c 0,0.32 0.089,0.576 0.266,0.771 0.176,0.195 0.425,0.293 0.743,0.293 h 4.996 c 0.32,0 0.559,-0.098 0.718,-0.293 0.159,-0.195 0.24,-0.451 0.24,-0.771 v -4.837 c 0,-0.637 -0.319,-0.956 -0.958,-0.956 h -4.996 c -0.283,0 -0.523,0.088 -0.717,0.266" /><g
           transform="translate(265.4662,137.2381)"
           id="g146"><path
             id="path148"
             style="fill:#2d368e;fill-opacity:1;fill-rule:nonzero;stroke:none"
             d="M 0,0 C -6.344,0 -11.487,5.172 -11.487,11.553 V 92.399 H 52.398 V 76.3 H 8.446 V 55.17 H 49.651 V 39.598 H 8.446 V 17.219 c 0,-0.473 0.38,-0.856 0.85,-0.856 H 53.183 V 0 Z" /></g><g
           transform="translate(351.698,184.3849)"
           id="g150"><path
             id="path152"
             style="fill:#2d368e;fill-opacity:1;fill-rule:nonzero;stroke:none"
             d="m 0,0 h 20.775 c 2.678,0 4.897,0.207 6.592,0.615 1.575,0.38 2.774,1.021 3.669,1.961 0.912,0.951 1.542,2.173 1.922,3.731 0.405,1.679 0.611,3.884 0.611,6.558 v 2.895 c 0,3.125 -0.209,5.652 -0.619,7.509 -0.369,1.67 -1.027,2.895 -2.008,3.743 -1.018,0.871 -2.452,1.466 -4.261,1.768 -2.021,0.336 -4.711,0.506 -8,0.506 L 0,29.286 Z m 33.7,-47.147 v 13.837 c 0,4.122 -0.193,7.457 -0.572,9.906 -0.343,2.225 -1.052,3.933 -2.106,5.071 -1.035,1.113 -2.605,1.846 -4.664,2.188 -2.323,0.38 -5.433,0.572 -9.246,0.572 H 0 v -31.574 h -19.671 v 92.399 h 42.145 c 6.093,0 11.172,-0.431 15.091,-1.282 4.081,-0.888 7.348,-2.446 9.709,-4.631 2.389,-2.214 4.031,-5.14 4.878,-8.696 0.809,-3.39 1.22,-7.642 1.22,-12.647 v -2.498 c 0,-7.357 -1.054,-12.684 -3.221,-16.286 -1.05,-1.745 -2.418,-3.214 -4.065,-4.369 l -1.952,-1.372 2.097,-1.132 c 1.871,-1.012 3.376,-2.542 4.474,-4.548 1.043,-1.909 1.76,-4.39 2.132,-7.366 0.354,-2.863 0.535,-6.511 0.535,-10.84 v -16.732 z" /></g><g
           transform="translate(443.0219,171.6237)"
           id="g154"><path
             id="path156"
             style="fill:#2d368e;fill-opacity:1;fill-rule:nonzero;stroke:none"
             d="M 0,0 H 26.192 L 13.27,40.621 Z m 36.803,-34.386 -5.887,18.813 H -4.609 l -5.886,-18.813 h -20.657 l 27.387,80.032 c 2.532,7.397 9.458,12.368 17.236,12.368 7.79,0 14.719,-4.979 17.245,-12.391 l 27.261,-80.009 z" /></g><g
           transform="translate(542.0497,136.3181)"
           id="g158"><path
             id="path160"
             style="fill:#2d368e;fill-opacity:1;fill-rule:nonzero;stroke:none"
             d="m 0,0 c -8.056,0 -14.57,0.336 -19.363,1 -5.04,0.699 -8.847,2.007 -11.64,4.008 -2.854,2.047 -4.741,4.899 -5.607,8.481 -0.809,3.343 -1.219,7.71 -1.219,12.976 v 5.684 h 18.886 v -4.631 c 0,-2.57 0.223,-4.646 0.661,-6.17 0.386,-1.339 1.093,-2.343 2.165,-3.07 1.158,-0.791 2.886,-1.351 5.133,-1.667 2.405,-0.34 5.617,-0.512 9.545,-0.512 h 2.485 c 3.585,0 6.535,0.149 8.768,0.446 2.064,0.273 3.626,0.784 4.642,1.517 0.94,0.673 1.571,1.636 1.921,2.936 0.4,1.489 0.603,3.461 0.603,5.861 v 1.711 c 0,2.038 -0.2,3.757 -0.593,5.111 -0.333,1.133 -1.083,2.039 -2.296,2.774 -0.941,0.567 -2.764,1.369 -6.11,1.984 -2.808,0.512 -6.68,0.992 -11.514,1.426 -6.915,0.526 -12.595,1.337 -16.899,2.406 -4.436,1.104 -7.938,2.734 -10.408,4.847 -2.531,2.162 -4.251,4.91 -5.11,8.176 -0.813,3.091 -1.225,6.934 -1.225,11.427 v 2.105 c 0,4.51 0.483,8.414 1.435,11.605 0.998,3.341 2.787,6.084 5.32,8.151 2.48,2.026 5.903,3.498 10.177,4.378 4.136,0.848 9.452,1.279 15.795,1.279 h 3.402 c 7.198,0 13.115,-0.405 17.589,-1.204 4.609,-0.828 8.273,-2.248 10.888,-4.221 2.7,-2.035 4.511,-4.812 5.383,-8.245 0.812,-3.222 1.223,-7.261 1.223,-12.005 V 63.539 H 15.281 v 4.235 c 0,2.213 -0.202,4.047 -0.598,5.447 -0.353,1.234 -0.993,2.185 -1.961,2.915 -1.029,0.777 -2.577,1.346 -4.601,1.699 -2.175,0.377 -5.084,0.57 -8.644,0.57 h -2.486 c -3.294,0 -6.043,-0.15 -8.168,-0.446 -1.928,-0.27 -3.405,-0.762 -4.395,-1.455 -0.918,-0.649 -1.524,-1.515 -1.864,-2.644 -0.392,-1.297 -0.592,-3.036 -0.592,-5.166 v -1.84 c 0,-1.869 0.179,-3.436 0.532,-4.657 0.283,-0.984 0.976,-1.771 2.118,-2.412 1.336,-0.751 3.386,-1.383 6.09,-1.878 2.81,-0.511 6.674,-0.948 11.485,-1.296 7.019,-0.615 12.782,-1.446 17.104,-2.467 4.467,-1.058 8.007,-2.613 10.52,-4.625 2.588,-2.07 4.342,-4.787 5.213,-8.07 0.814,-3.105 1.227,-7.038 1.227,-11.695 v -2.366 c 0,-5.364 -0.467,-9.665 -1.43,-13.155 C 33.839,10.622 32.029,7.696 29.452,5.534 26.909,3.404 23.449,1.926 19.164,1.144 15.046,0.385 9.699,0 3.27,0 Z" /></g><g
           transform="translate(694.6212,171.5733)"
           id="g162"><path
             id="path164"
             style="fill:#73be44;fill-opacity:1;fill-rule:nonzero;stroke:none"
             d="M 0,0 H 26.453 L 13.402,40.794 Z m 37.17,-34.532 -5.946,18.893 H -4.655 L -10.6,-34.532 h -20.862 l 27.66,80.373 c 2.556,7.428 9.552,12.42 17.407,12.42 7.868,0 14.866,-5 17.417,-12.443 l 27.532,-80.35 z" /></g><g
           transform="translate(611.0015,152.7476)"
           id="g166"><path
             id="path168"
             style="fill:#73be44;fill-opacity:1;fill-rule:nonzero;stroke:none"
             d="M 0,0 V 77.087 H -19.313 V -4.335 c 0,-6.28 5.091,-11.372 11.372,-11.372 H 45.357 V 0 Z" /></g><g
           transform="translate(819.432,229.8343)"
           id="g170"><path
             id="path172"
             style="fill:#73be44;fill-opacity:1;fill-rule:nonzero;stroke:none"
             d="M 0,0 0.779,-73.596 -33.553,0 h -26.015 v -92.793 h 17.981 l -0.391,74.156 33.287,-74.156 h 26.81 l 0,92.793 z" /></g><g
           transform="translate(905.8423,188.6483)"
           id="g174"><path
             id="path176"
             style="fill:#73be44;fill-opacity:1;fill-rule:nonzero;stroke:none"
             d="m 0,0 v -9.62 c 0,-5.887 -0.281,-10.668 -0.839,-14.206 -0.536,-3.408 -1.581,-6.03 -3.105,-7.794 -1.509,-1.745 -3.706,-2.923 -6.532,-3.5 -2.974,-0.606 -6.957,-0.915 -11.84,-0.915 h -13.72 v 61.917 h 13.72 c 4.87,0 8.831,-0.308 11.771,-0.916 2.794,-0.581 4.998,-1.741 6.552,-3.45 1.558,-1.715 2.62,-4.265 3.156,-7.579 C -0.281,10.486 0,5.796 0,0 m 17.503,21.651 c -1.13,5.297 -3.269,9.467 -6.363,12.396 -3.089,2.924 -7.365,4.871 -12.71,5.79 -5.219,0.895 -11.977,1.349 -20.093,1.349 h -33.27 v -92.793 h 33.27 c 8.474,0 15.435,0.5 20.693,1.484 5.396,1.013 9.652,3.032 12.65,6.005 3.004,2.98 5.031,7.199 6.022,12.54 0.966,5.205 1.456,12.097 1.456,20.489 V 1.202 c 0,8.401 -0.558,15.281 -1.655,20.449" /></g></g></g></g></svg>